<?xml version="1.0" encoding="UTF-8"?><svg id="Calque_2" xmlns="http://www.w3.org/2000/svg" viewBox="0 0 199.84 262.43"><defs><style>.cls-1{fill:none;}.cls-1,.cls-2,.cls-3,.cls-4,.cls-5{stroke-width:0px;}.cls-3{fill:#6e3e3a;}.cls-4{fill:#915e05;}.cls-5{fill:#edb98a;}</style></defs><g id="Calque_9"><path class="cls-5" d="m52.47,124.76c2.89-75.44,82.91-112.6,123.55-79.7,0,0,13.83,24.14,15.82,32.47,1.8,7.53,3.37,52.29,3.37,52.29l-5.06,52.92c-21.55,30.5-17.44,40.9-8.42,69.45,1.73,5.48-88.46,18.09-100.8,3.29,7.36-17.07,5.22-40.48,1.05-58.19-15.17-45.58-4.28-16.58-23.61-22.35-4.09-7.68-6.26-19.79-11.81-26.78-11.46-6.67-10.82-28.09,5.9-23.4Z"/><path class="cls-3" d="m122,215.76s3.04-11.49,11.84-13.58c8.8-2.09,29.65-1.57,29.65-1.57,0,0,5.32.04,6.46,6.04,1.14,6-14.75,12.53-14.75,12.53h-25.11l-8.09-3.42Z"/><path class="cls-3" d="m148.62,159.44s-12.92-7.61-26.85,0c-13.93,7.61-12.07,15.83-12.07,15.83,0,0,13.86-9.13,26.2-9.6,12.34-.47,12.73-6.22,12.73-6.22Z"/><path class="cls-3" d="m153.13,157.83s12.92-7.61,26.85,0c13.93,7.61,12.07,15.83,12.07,15.83,0,0-13.86-9.13-26.2-9.6-12.34-.47-12.73-6.22-12.73-6.22Z"/><path class="cls-3" d="m70.38,17.14c20.63-9.79,45.63-13.67,66.32-1.67,17.16,1.11,40.83,31.37,49.18,44.63-6.35-9.77-31.62-17.76-50.66-4.72,0,0-5.29.3-11.67.56-22.65.92-42.62,15.91-48.95,37.68-.45,1.55-.81,3.07-1.07,4.56-2.04,8.73-15.07,25.74-11.9,34.08-3.8-10.01-17.82-4.05-21.9-4.08-4-.03-3.32-3.38-10.14-20.46,0,0-4.19-25.1-4.19-25.1l6.92-37.79,38.06-27.69Z"/><polygon class="cls-4" points="29.21 44.4 23.28 49.11 12.78 47.19 5.59 35.96 5.59 15.6 20.83 2.05 41.98 10.28 58.02 26.47 46.81 34.43 29.21 44.4"/><polygon class="cls-4" points="25.11 83.73 20.87 92.25 8.22 97.49 7.16 93.15 25.11 72.64 25.11 83.73"/><path class="cls-2" d="m189,76.48c-9.78-29.26-39.58-57.92-71.71-61.68-21.45-.41-61.68,2.63-67.11,27.27C60.19-7.89,144.85,3.63,169.5,29.09c35.4,36.58,32.04,91.67,27.74,138.41,0,0,0-.02,0-.03-.17.9-.54,2.43-.06.39-5.91,35.87-33.91,51.47-10.3,89.37-11.44-9.64-13.63-26.76-12.81-40.92-29.25,21.92-75.62,9.83-89.64-24.06,19.07,28.37,68.69,30.21,91.64,6.43,23.48-34.48,18.78-82.77,12.93-122.2Z"/><path class="cls-1" d="m89.82,201.42h0c.05.09.11.17.16.26l.42.67h0c.14.23.28.46.44.68h0c1.03,1.44,2.11,2.85,3.31,4.15h0c.96,1.04,2.01,2.03,3.12,2.9h0c.77.59,1.61,1.09,2.46,1.57h0c.82.47,1.67.9,2.54,1.27h0c.83.35,1.68.64,2.54.9h0c.81.24,1.63.43,2.46.59h0c.88.17,1.78.28,2.67.4l2.6.32,2.71.42,2.8.57,2.83.71,2.79.78,2.99.69,2.7.51,2.69.37,2.79.33h0c.87.09,1.73.18,2.6.22h0c.83.03,1.67.02,2.5-.02h0c.83-.04,1.66-.14,2.49-.23l2.49-.3,2.32-.38,2.18-.46,2.19-.45,2.01-.53,1.89-.59,1.91-.7,1.85-.77h0c.58-.24,1.16-.46,1.73-.73h0c.55-.26,1.08-.54,1.61-.84h0c.48-.27.96-.55,1.42-.85h0c.46-.31.91-.65,1.35-.99h0c.43-.34.82-.72,1.24-1.05h0c.43-.33.86-.66,1.32-.94h0c.42-.26.87-.48,1.31-.72l1.25-.63h0c.37-.19.74-.36,1.1-.57h0c.36-.2.7-.43,1.04-.66h0c.32-.23.63-.48.95-.72l.97-.76.98-.87.95-.91.78-.76.64-.63.55-.53h0c.16-.15.34-.29.5-.44"/><path class="cls-2" d="m196.54,167.28c.03-.14.05-.27.06-.36-.02.12-.04.24-.06.36Z"/><path class="cls-2" d="m28.04,43.02c-5.77,2.27-12.58,4.03-15.77.96-6.03-5.8-1.14-31.52,14.84-34.44,7.4-1.35,21.04,6.09,31.33,17.79C50.16-4.47,2.43-12.42.84,24.6c-5.12,18.45,14.17,45.45,28.11,21.19-2.02,3.76-3.59,7.71-5.08,11.71,0-.01,0-.02,0-.03-1.31,24.88-27.77,26.22-23.34,41.76-.17.79,3.3,2.12,1.9,1.54,6.82,1.59,17.15-2.57,20.07-9.15,1.87,9.67,4.56,20.47,8.46,32.03,2.91,8.62,6.08,16.46,9.28,23.48,2.22,2.14,4.64,4.83,6.99,8.12,1.35,1.89,2.49,3.73,3.45,5.46.24,19.04,16.14,28.54,22.83,6.25-.9.96-1.74,1.98-2.57,3.01-2.5,6.12-11.35,6.8-13.51.47-2.1-9.3-.96-20.96-10.93-26.16-12.74-15.61,10.03-25.39,16.26-7.82-.68-3.76-2.36-7.39-4.33-10.65-.5-.67-3.12-4.04-7.65-4.54-4.39-.49-8.82,1.92-11.2,6.12-15.8-29.96-17.32-75.39,12.43-96.51,3.32-2.36-15.12,8.37-20.14,11.36l-3.86.78Zm-16.73,50.14c5.11-3.2,8.98-8.63,10.38-14.33,1.2,8.7,1.3,15.67-10.38,14.33Z"/><path class="cls-2" d="m57.07,143.36c-.61-1.47-1.31-3.01-2.12-4.6-.44-.85-.88-1.67-1.32-2.45,1.43.86,4.08,2.73,6.14,6.1,2.49,4.08,2.68,8.03,2.66,9.72-.05,1.49-.23,2.27-.54,2.32-.55.1-1.52-2.13-2.9-6.7-.64-1.46-1.28-2.92-1.92-4.39Z"/><path class="cls-2" d="m125.18,89.09c-5.48-1.84-10.91-3.03-16.82-2.94-5.37.65-10.89,2.1-15.09,5.68-1.68,1.36-3.54,2.53-5,4.13-.8.98-1.42,2.09-2.19,3.09-.31.41-.54.93-1.09,1.06.53.18.93-.19,1.37-.42.47-.25.9-.54,1.32-.86,1.62-1.06,2.79-1.19,4.56-1.75,4.11-1.29,5.39-1.83,10.2-2.19,4.03-.22,8.05-.52,12.1-.56,3.08.02,6.14-.33,9.22-.32,3.99-.15,7.86-1.24,11.74-2.05-3.65-1.21-7.12-1.94-10.33-2.86Z"/><path class="cls-2" d="m158.72,84.98c5.21-1.84,10.37-3.03,15.97-2.94,5.1.65,10.35,2.1,14.34,5.68,1.59,1.36,3.36,2.53,4.75,4.13.76.98,1.35,2.09,2.08,3.09.3.41.52.93,1.04,1.06-.5.18-.89-.19-1.3-.42-.45-.25-.85-.54-1.25-.86-1.54-1.06-2.65-1.19-4.33-1.75-3.9-1.29-5.12-1.83-9.68-2.19-3.83-.22-7.65-.52-11.49-.56-2.92.02-5.83-.33-8.75-.32-3.79-.15-7.46-1.24-11.15-2.05,3.47-1.21,6.76-1.94,9.81-2.86Z"/><path class="cls-2" d="m163.1,122.75c-1.42-7.63-5.7-14.16-11.19-19.49,1.83,3.93,3.6,9.38,4.6,11.36,2.25,5.69,3.17,14.96,3.17,21.87-2.13,6.83-9.26,10.35-15.98,8.8-.5.04-3.68-1.57-2.23-.36,16.89,15.97,27.52-6.45,21.62-22.19Z"/><path class="cls-2" d="m175.75,98.86c-1.52-1.05-3.39-.28-4.42,1.08-2.41,3.22-2.24,9.06.91,11.73,1.02.8,2.25.56,3.27-.06.28-.1.55-.23.79-.39,3.54-2.47,2.9-10.07-.55-12.37Z"/><path class="cls-2" d="m118.89,104.41c-.39-3-1.66-5.7-4.21-6.03-4.53.5-5.24,7.29-3.68,12,.17.6.4,1.17.71,1.69.55,1.04,1.24,1.88,2.04,2.36,1.84.99,3.69-.44,4.49-2.09,1.02-2.3,1.26-5.25.64-7.93Z"/><path class="cls-2" d="m172.1,166.94s-.14-.02-.17-.01c-10.67,12.17-29.33,7.03-42.27,1.14,1.44,20.46,38.62,18.77,42.44-1.13Z"/><path class="cls-2" d="m101.12,45.47c-6.12-3.36-11.82-7.18-16.17-12.67-.89-1.24-1.66-2.58-2.34-3.94.22,1.66.61,3.31,1.08,4.92,2.43,7.05,7.15,13.64,13.68,17.4,6.79,3.58,14.96,4.66,22.45,3.01-6.48-2.26-12.75-5.29-18.69-8.72Z"/><path class="cls-2" d="m120.59,24.84c-.26-.08-.52-.15-.78-.2.94.83,1.78,1.76,2.62,2.69,6.39,6.7,8.7,15.47,11.75,23.93-.32-10.09-2.37-23.16-13.59-26.42Z"/><path class="cls-2" d="m142.39,27.14c-.37-.25-.77-.47-1.16-.67.45.61.88,1.24,1.28,1.88,3.21,4.96,3.75,11.37,2.83,17.09,2.92-5.58,2.7-14.5-2.95-18.3Z"/><path class="cls-2" d="m73.22,58.88c-3.74-.66-7.57-1.11-11.16-2.23-3.82-1.38-7.5-3.33-10.67-5.88-.78-.71-1.31-1.65-1.85-2.55.19.97.42,1.93.74,2.87,2.76,5.99,8.24,11.54,14.65,13.46,3.71,1.11,7.66.96,11.47.53,4.53-.6,9.08-1.62,13.2-3.65-5.5-.51-10.91-1.71-16.37-2.54Z"/><path class="cls-2" d="m40.09,78.81c-.43-1.62-.65-3.29-.93-4.94-.1.85-.21,1.69-.28,2.54-1.28,13.55,6.98,24.85,21.44,21.16-9.26-2.75-18.32-9.14-20.23-18.77Z"/><path class="cls-2" d="m80.9,186.93c-23.43-56.92,9.19,43.77-2.76,64.63,8.61,13.14,13.32-49.2,2.76-64.63Z"/><path class="cls-2" d="m51.36,138.76s-7.37,5.76-12.88,1.77v-3.52s-.58-2.83-3.36-.31.23,7.39,1.97,8.43c1.6.96,2.59,1.77,6.26,1.51,0,0,7.42.23,9.51-2.9s-1.51-4.98-1.51-4.98Z"/><path class="cls-2" d="m55.22,149.04s-6.1,6.16-11.82,3.47l-.49-3.09s-.94-2.4-3.19.23,1.25,6.47,3.03,7.12c1.63.6,2.68,1.18,6.08.39,0,0,6.99-.9,8.51-3.97s-2.11-4.15-2.11-4.15Z"/></g></svg>